<?xml version="1.0" encoding="UTF-8"?>
<svg version="1.1" xmlns="http://www.w3.org/2000/svg" width="146" height="149">
<path d="M0 0 C14.97571297 11.81967428 26.07411001 27.73665589 28.9609375 46.86328125 C30.97270775 68.46489503 27.31952998 88.33760387 13.5859375 105.73828125 C1.247785 119.90123613 -14.85433798 130.35598889 -33.89648438 132.12939453 C-55.91695272 133.4019876 -75.53817234 129.01193373 -92.58203125 114.1640625 C-106.33551987 101.28519955 -115.38218194 84.97699507 -116.48046875 65.97265625 C-117.1813357 43.67841245 -111.59266647 24.47315713 -96.0390625 7.86328125 C-70.96526522 -18.33954255 -29.28805889 -20.59198999 0 0 Z " fill="#05652B" transform="translate(116.0390625,16.13671875)"/>
<path d="M0 0 C4.3235667 7.12015944 2.32443372 17.64458736 0.68359375 25.44140625 C-2.58605161 37.67922176 -10.16554516 45.69406908 -21 52 C-24.92956512 53.8687496 -28.93255369 55.45865192 -33 57 C-34.83466773 57.72580262 -36.66809993 58.45473997 -38.5 59.1875 C-39.2734375 59.49042969 -40.046875 59.79335937 -40.84375 60.10546875 C-42.95112255 60.97972294 -44.97303414 61.95426989 -47 63 C-43.86569909 53.6130886 -33.55232294 49.4390793 -25.33203125 44.9921875 C-16.76950949 39.87274307 -10.52266087 32.83837738 -8 23 C-8.42410156 23.64066406 -8.84820312 24.28132813 -9.28515625 24.94140625 C-17.72932503 37.39423538 -28.10959348 47.02922493 -43 51 C-43.57994294 40.72212242 -42.53672775 33.40911303 -36.875 24.75 C-31.72668334 19.82552319 -25.61764481 16.80975226 -19.30078125 13.609375 C-18.04128662 12.96500488 -18.04128662 12.96500488 -16.75634766 12.30761719 C-15.07392535 11.45121594 -13.38493095 10.60757714 -11.68896484 9.77832031 C-6.54923672 7.17022514 -3.36646666 4.69803055 0 0 Z " fill="#90D356" transform="translate(114,56)"/>
<path d="M0 0 C0.598125 0.680625 1.19625 1.36125 1.8125 2.0625 C6.69375225 6.94375225 13.02801716 10.26404711 18.94921875 13.72265625 C25.86651277 17.86548309 31.37740262 22.13220785 34 30 C34.06970052 32.39490986 34.08448003 34.79167691 34.0625 37.1875 C34.05347656 38.45980469 34.04445312 39.73210937 34.03515625 41.04296875 C34.02355469 42.01878906 34.01195312 42.99460938 34 44 C23.53287724 40.95669558 14.12847329 33.17567976 8.6875 23.71875 C7.7349859 21.84018052 6.85861626 19.92330043 6 18 C8.07687257 24.95708176 8.07687257 24.95708176 12 31 C12 31.66 12 32.32 12 33 C12.66 33 13.32 33 14 33 C15.68933922 34.6436814 17.35259924 36.3142876 19 38 C21.7345035 40.37470041 24.22185731 42.11697931 27.4375 43.8125 C31.5534373 46.06001839 34.17813425 49.32020437 37 53 C36.505 53.99 36.505 53.99 36 55 C35.33484375 54.41863281 34.6696875 53.83726563 33.984375 53.23828125 C30.56963116 50.67722337 27.09786833 48.98956314 23.25 47.1875 C11.47650474 41.44182037 4.12334397 35.92383991 -0.3125 23.25 C-1.92635134 15.66794369 -1.41939176 7.56251928 0 0 Z " fill="#92D455" transform="translate(31,55)"/>
<path d="M0 0 C6.19465526 4.95572421 9.08715873 12.10880572 10.5234375 19.8046875 C11.23188477 31.44346409 4.15077277 40.37409318 -3.046875 48.8203125 C-4.32661188 50.24849886 -5.64400539 51.64400539 -7 53 C-6.11702936 47.11352905 -4.60615743 43.06465737 -1.4375 38 C1.79207321 32.77371971 2.89813019 29.11218854 3 23 C2.79697266 23.87398437 2.79697266 23.87398437 2.58984375 24.765625 C0.61510144 32.28620051 -2.88619436 38.44045238 -7 45 C-11.5703231 40.64333021 -13.05006523 36.91790333 -13.375 30.625 C-13.11807329 22.04650278 -7.5247333 15.66910743 -2.70703125 8.9296875 C-0.9152442 5.8545381 -0.34947825 3.51564692 0 0 Z " fill="#9AD757" transform="translate(74,30)"/>
<path d="M0 0 C0.495 1.485 0.495 1.485 1 3 C3.47739354 3.90837763 5.33579484 4 8 4 C0.45645553 13.72720207 -8.62443161 18.68925829 -20 23 C-21.83466773 23.72580262 -23.66809993 24.45473997 -25.5 25.1875 C-26.2734375 25.49042969 -27.046875 25.79335937 -27.84375 26.10546875 C-29.95112255 26.97972294 -31.97303414 27.95426989 -34 29 C-30.86569909 19.6130886 -20.55232294 15.4390793 -12.33203125 10.9921875 C-7.42714332 8.05960503 -3.2085315 4.81279725 0 0 Z " fill="#3CAE54" transform="translate(101,90)"/>
<path d="M0 0 C1.134375 0.020625 2.26875 0.04125 3.4375 0.0625 C4.0975 1.7125 4.7575 3.3625 5.4375 5.0625 C6.0975 5.0625 6.7575 5.0625 7.4375 5.0625 C9.12683922 6.7061814 10.79009924 8.3767876 12.4375 10.0625 C15.1720035 12.43720041 17.65935731 14.17947931 20.875 15.875 C24.9909373 18.12251839 27.61563425 21.38270437 30.4375 25.0625 C30.1075 25.7225 29.7775 26.3825 29.4375 27.0625 C28.77234375 26.48113281 28.1071875 25.89976563 27.421875 25.30078125 C24.00727646 22.73983234 20.53554395 21.05145264 16.6875 19.25 C7.5586943 14.80909964 -0.10868216 10.55106844 -4.5625 1.0625 C-3.5625 0.0625 -3.5625 0.0625 0 0 Z " fill="#45B152" transform="translate(37.5625,82.9375)"/>
<path d="M0 0 C0.33 0 0.66 0 1 0 C2.11906769 10.52752568 -1.09004755 17.74743407 -7.33203125 26.1328125 C-10.09710772 29.55453879 -12.88831565 32.88831565 -16 36 C-15.12636463 30.17576421 -13.68303587 26.22638872 -10.5 21.25 C-6.63919945 15.02134881 -5.57171937 9.23400022 -5 2 C-4.67 2.66 -4.34 3.32 -4 4 C-2.68 3.67 -1.36 3.34 0 3 C0 2.01 0 1.02 0 0 Z " fill="#57BC57" transform="translate(83,47)"/>
<path d="M0 0 C1.60415956 3.20831913 0.1988389 5.73647507 -0.83203125 9.046875 C-2.93699175 14.36911627 -5.96662163 19.16321585 -9 24 C-12.7279444 20.57514051 -13.85597407 17.95744572 -15 13 C-14.26136719 12.60039063 -13.52273437 12.20078125 -12.76171875 11.7890625 C-9.87106402 9.91647429 -8.02322394 8.00050193 -5.8125 5.375 C-2.19074334 1.09537167 -2.19074334 1.09537167 0 0 Z " fill="#72C957" transform="translate(76,51)"/>
<path d="M0 0 C0.66 0 1.32 0 2 0 C6 5.41176471 6 5.41176471 6 8 C7.65 8 9.3 8 11 8 C11.66 9.65 12.32 11.3 13 13 C15.24768247 12.1195104 15.24768247 12.1195104 16.3125 9.5 C18 7 18 7 23 6 C23 10.62 23 15.24 23 20 C12.89499492 16.63166497 5.50260642 10.34464168 -1 2 C-0.67 1.34 -0.34 0.68 0 0 Z " fill="#65C056" transform="translate(42,79)"/>
<path d="M0 0 C0.33 0.99 0.66 1.98 1 3 C3.47739354 3.90837763 5.33579484 4 8 4 C4.69984002 8.13937592 1.82675589 11.58662205 -3 14 C-3.66 13.34 -4.32 12.68 -5 12 C-8.09926819 12.32198966 -8.09926819 12.32198966 -11 13 C-11.33 12.34 -11.66 11.68 -12 11 C-11.38511719 10.54109375 -10.77023438 10.0821875 -10.13671875 9.609375 C-9.32847656 8.99578125 -8.52023438 8.3821875 -7.6875 7.75 C-6.88699219 7.14671875 -6.08648437 6.5434375 -5.26171875 5.921875 C-3.11450388 4.09729864 -1.58398701 2.31702954 0 0 Z " fill="#57BC55" transform="translate(101,90)"/>
<path d="M0 0 C0 0.66 0 1.32 0 2 C0.66 2 1.32 2 2 2 C1.57405412 3.44096586 1.13373367 4.87768712 0.6875 6.3125 C0.44386719 7.11300781 0.20023438 7.91351563 -0.05078125 8.73828125 C-1.06355423 11.15143168 -1.97035042 12.37126886 -4 14 C-7.13349732 15.04449911 -7.98968256 14.93423645 -11 14 C-10.52269162 12.5410574 -10.04308958 11.08286504 -9.5625 9.625 C-9.29566406 8.81289062 -9.02882813 8.00078125 -8.75390625 7.1640625 C-7.30788462 3.01330611 -4.74657747 0 0 0 Z " fill="#7ACB56" transform="translate(112,80)"/>
<path d="M0 0 C-1.85661761 5.56985282 -8.10092015 8.15995371 -13 11 C-16.00433663 12.27558427 -18.83740852 13.15664227 -22 14 C-22 9.71 -22 5.42 -22 1 C-21.01 1.33 -20.02 1.66 -19 2 C-18.5875 2.845625 -18.175 3.69125 -17.75 4.5625 C-17.1725 5.366875 -16.595 6.17125 -16 7 C-12.37400578 7.41725678 -12.37400578 7.41725678 -9 7 C-8.95875 6.401875 -8.9175 5.80375 -8.875 5.1875 C-8 3 -8 3 -5.0625 1.25 C-2 0 -2 0 0 0 Z " fill="#63C358" transform="translate(93,93)"/>
<path d="M0 0 C0.66 0 1.32 0 2 0 C6.59225513 9.22551253 6.59225513 9.22551253 6 15 C4.68 15.33 3.36 15.66 2 16 C1.566875 14.88625 1.566875 14.88625 1.125 13.75 C0.13248276 11.06441822 0.13248276 11.06441822 -1.25 9.125 C-2.43062111 5.77990686 -1.12426025 3.24786293 0 0 Z " fill="#97D756" transform="translate(77,35)"/>
<path d="M0 0 C1.32 0.33 2.64 0.66 4 1 C-0.49919525 7.97128055 -5.11072867 15.11072867 -11 21 C-9.125 10.875 -9.125 10.875 -6 7 C-5.01 7 -4.02 7 -3 7 C-2.690625 6.21625 -2.38125 5.4325 -2.0625 4.625 C-1 2 -1 2 0 0 Z " fill="#42B456" transform="translate(78,62)"/>
<path d="M0 0 C0.66 0.99 1.32 1.98 2 3 C-3.56466877 7.79179811 -3.56466877 7.79179811 -7 8 C-10.25 7.0625 -10.25 7.0625 -13 6 C-12 3 -12 3 -9 1 C-6.73828125 0.5859375 -6.73828125 0.5859375 -4.3125 0.375 C-3.50425781 0.30023438 -2.69601563 0.22546875 -1.86328125 0.1484375 C-0.94095703 0.07496094 -0.94095703 0.07496094 0 0 Z " fill="#46B453" transform="translate(96,101)"/>
<path d="M0 0 C1.134375 0.020625 2.26875 0.04125 3.4375 0.0625 C4.0975 1.7125 4.7575 3.3625 5.4375 5.0625 C6.0975 5.0625 6.7575 5.0625 7.4375 5.0625 C8.0975 6.3825 8.7575 7.7025 9.4375 9.0625 C7.7875 9.3925 6.1375 9.7225 4.4375 10.0625 C4.4375 9.0725 4.4375 8.0825 4.4375 7.0625 C3.695 7.18625 2.9525 7.31 2.1875 7.4375 C-0.5625 7.0625 -0.5625 7.0625 -2.875 4.0625 C-3.431875 3.0725 -3.98875 2.0825 -4.5625 1.0625 C-3.5625 0.0625 -3.5625 0.0625 0 0 Z " fill="#5BBE55" transform="translate(37.5625,82.9375)"/>
<path d="M0 0 C4.79159238 2.60412629 7.72611299 5.76320505 11 10 C10.67 10.66 10.34 11.32 10 12 C9.30519531 11.40703125 8.61039063 10.8140625 7.89453125 10.203125 C4.93278702 7.94884194 2.03363156 6.36790977 -1.3125 4.75 C-2.38113281 4.22921875 -3.44976562 3.7084375 -4.55078125 3.171875 C-5.35902344 2.78515625 -6.16726562 2.3984375 -7 2 C-6.401875 1.855625 -5.80375 1.71125 -5.1875 1.5625 C-3.43849596 1.1127561 -1.71322977 0.57107659 0 0 Z " fill="#3BAE54" transform="translate(57,98)"/>
<path d="M0 0 C0.05395478 1.62463842 0.09277195 3.24978541 0.125 4.875 C0.14820312 5.77992187 0.17140625 6.68484375 0.1953125 7.6171875 C0 10 0 10 -2 12 C-2 11.34 -2 10.68 -2 10 C-3.65 9.67 -5.3 9.34 -7 9 C-8 6 -8 6 -6.8125 3.375 C-5 1 -5 1 -2.875 0.1875 C-1 0 -1 0 0 0 Z " fill="#6EC656" transform="translate(65,85)"/>
<path d="M0 0 C-0.47610659 4.99911924 -2.03162219 7.97832683 -5 12 C-6.32 10.68 -7.64 9.36 -9 8 C-4.45945946 0 -4.45945946 0 0 0 Z " fill="#66C356" transform="translate(72,63)"/>
<path d="M0 0 C1.32 0 2.64 0 4 0 C4 0.66 4 1.32 4 2 C5.65 2 7.3 2 9 2 C6.56727664 6.74381055 6.56727664 6.74381055 4.0625 7.875 C1.82087733 8.01085592 0.13005882 7.68466176 -2 7 C-1.34 4.69 -0.68 2.38 0 0 Z " fill="#6AC455" transform="translate(103,87)"/>
<path d="M0 0 C0.33 0.66 0.66 1.32 1 2 C2.2065625 2.1546875 2.2065625 2.1546875 3.4375 2.3125 C4.283125 2.539375 5.12875 2.76625 6 3 C7.3125 5.5625 7.3125 5.5625 8 8 C5.69 8.33 3.38 8.66 1 9 C-1.09230769 4.56923077 -1.09230769 4.56923077 -0.625 1.6875 C-0.41875 1.130625 -0.2125 0.57375 0 0 Z " fill="#7BCD57" transform="translate(32,75)"/>
<path d="M0 0 C1.24546405 2.49092811 0.7767578 3.41080733 0 6 C-1.32 6 -2.64 6 -4 6 C-4.33 7.32 -4.66 8.64 -5 10 C-5.66 10 -6.32 10 -7 10 C-8.57840572 11.55705194 -8.57840572 11.55705194 -10.125 13.5 C-10.66382812 14.1496875 -11.20265625 14.799375 -11.7578125 15.46875 C-12.37269531 16.22671875 -12.37269531 16.22671875 -13 17 C-13.66 15.68 -14.32 14.36 -15 13 C-14.26136719 12.60039063 -13.52273437 12.20078125 -12.76171875 11.7890625 C-9.87106402 9.91647429 -8.02322394 8.00050193 -5.8125 5.375 C-2.19074334 1.09537167 -2.19074334 1.09537167 0 0 Z " fill="#7FCE57" transform="translate(76,51)"/>
<path d="M0 0 C1.65 1.65 3.3 3.3 5 5 C4.360625 6.051875 3.72125 7.10375 3.0625 8.1875 C1.38245548 11.10828412 0.41003948 13.6171743 0 17 C-0.33 17 -0.66 17 -1 17 C-1.18451025 5.47835991 -1.18451025 5.47835991 0 0 Z " fill="#A2DC59" transform="translate(31,55)"/>
<path d="M0 0 C0.33 0.66 0.66 1.32 1 2 C2.32 1.67 3.64 1.34 5 1 C5.36666667 6.5 5.36666667 6.5 3.625 8.875 C2 10 2 10 0 10 C-0.33 10.66 -0.66 11.32 -1 12 C-0.67 8.04 -0.34 4.08 0 0 Z " fill="#69C156" transform="translate(78,49)"/>
<path d="M0 0 C1.01707031 0.82564453 1.01707031 0.82564453 2.0546875 1.66796875 C3.07949219 2.48201172 3.07949219 2.48201172 4.125 3.3125 C5.9296875 4.85546875 5.9296875 4.85546875 7.9296875 6.85546875 C2.58124742 6.32062474 -1.42827353 4.38856108 -6.0703125 1.85546875 C-6.0703125 1.19546875 -6.0703125 0.53546875 -6.0703125 -0.14453125 C-3.45197984 -1.16016253 -2.51319312 -1.38936903 0 0 Z " fill="#4EB954" transform="translate(49.0703125,92.14453125)"/>
<path d="M0 0 C1.32 0 2.64 0 4 0 C4 0.66 4 1.32 4 2 C6.31 2.33 8.62 2.66 11 3 C11 4.32 11 5.64 11 7 C6.96678237 5.78065514 3.45730521 4.44045073 0 2 C0 1.34 0 0.68 0 0 Z " fill="#54B954" transform="translate(54,92)"/>
<path d="M0 0 C1.29441197 3.59094935 0.71538408 5.63082775 -0.6875 9.125 C-1.02136719 9.99382812 -1.35523437 10.86265625 -1.69921875 11.7578125 C-3.17930806 14.30907756 -4.27964127 14.98058136 -7 16 C-5.55377814 12.14340838 -3.78682503 8.52237006 -1.90234375 4.8671875 C-0.87997124 2.85335678 -0.87997124 2.85335678 0 0 Z " fill="#177032" transform="translate(108,71)"/>
<path d="M0 0 C1.134375 0.020625 2.26875 0.04125 3.4375 0.0625 C3.7675 1.0525 4.0975 2.0425 4.4375 3.0625 C2.1275 3.7225 -0.1825 4.3825 -2.5625 5.0625 C-3.2225 3.7425 -3.8825 2.4225 -4.5625 1.0625 C-3.5625 0.0625 -3.5625 0.0625 0 0 Z " fill="#67C457" transform="translate(37.5625,82.9375)"/>
<path d="M0 0 C0.66 0 1.32 0 2 0 C2.66 1.65 3.32 3.3 4 5 C2.68 5 1.36 5 0 5 C0.33 6.65 0.66 8.3 1 10 C0.01 10.495 0.01 10.495 -1 11 C-2.0257259 6.58937864 -2.03684712 4.07369424 0 0 Z " fill="#89C851" transform="translate(77,35)"/>
<path d="M0 0 C0.66 0 1.32 0 2 0 C2 1.98 2 3.96 2 6 C0.68 6.33 -0.64 6.66 -2 7 C-2.33 6.01 -2.66 5.02 -3 4 C-2.67 3.34 -2.34 2.68 -2 2 C-1.34 2 -0.68 2 0 2 C0 1.34 0 0.68 0 0 Z " fill="#82D156" transform="translate(81,44)"/>
<path d="M0 0 C0.99 0.33 1.98 0.66 3 1 C2.67 2.32 2.34 3.64 2 5 C0.35 5 -1.3 5 -3 5 C-2.625 3.0625 -2.625 3.0625 -2 1 C-1.34 0.67 -0.68 0.34 0 0 Z " fill="#A1DA55" transform="translate(96,69)"/>
<path d="M0 0 C2.32472205 2.85306797 3.7508258 5.54074837 5 9 C4.01 9 3.02 9 2 9 C0.50178941 5.62902617 0 3.79557881 0 0 Z " fill="#197233" transform="translate(36,71)"/>
<path d="M0 0 C1.98 0 3.96 0 6 0 C5.34 1.65 4.68 3.3 4 5 C2.64567325 3.68799596 1.31266518 2.35368596 0 1 C0 0.67 0 0.34 0 0 Z " fill="#57BB57" transform="translate(63,70)"/>
<path d="M0 0 C0.66 0 1.32 0 2 0 C2.99 1.98 3.98 3.96 5 6 C3.125 5.75 3.125 5.75 1 5 C-0.25 2.9375 -0.25 2.9375 -1 1 C-0.67 0.67 -0.34 0.34 0 0 Z " fill="#74C755" transform="translate(42,79)"/>
<path d="M0 0 C0.66 0.99 1.32 1.98 2 3 C-0.97 5.475 -0.97 5.475 -4 8 C-2.25 2.25 -2.25 2.25 0 0 Z " fill="#8DD358" transform="translate(75,48)"/>
</svg>
